<?xml version="1.0" encoding="UTF-8" standalone="no"?>
<svg
   xmlns:dc="http://purl.org/dc/elements/1.1/"
   xmlns:cc="http://creativecommons.org/ns#"
   xmlns:rdf="http://www.w3.org/1999/02/22-rdf-syntax-ns#"
   xmlns:svg="http://www.w3.org/2000/svg"
   xmlns="http://www.w3.org/2000/svg"
   id="svg3336"
   version="1.1"
   xml:space="preserve"
   width="530.90503"
   height="102.75588"
   viewBox="0 0 530.90503 102.75588"><metadata
     id="metadata3342"><rdf:RDF><cc:Work
         rdf:about=""><dc:format>image/svg+xml</dc:format><dc:type
           rdf:resource="http://purl.org/dc/dcmitype/StillImage" /><dc:title></dc:title></cc:Work></rdf:RDF></metadata><defs
     id="defs3340"><clipPath
       clipPathUnits="userSpaceOnUse"
       id="clipPath3350"><path
         d="m 0,82.205 424.724,0 L 424.724,0 0,0 0,82.205 Z"
         id="path3352" /></clipPath></defs><g
     id="g3344"
     transform="matrix(1.25,0,0,-1.25,0,102.75588)"><g
       id="g3346"><g
         id="g3348"
         clip-path="url(#clipPath3350)"><g
           id="text3354"
           style="font-variant:normal;font-weight:normal;font-stretch:normal;font-size:72px;font-family:'Copperplate Gothic Bold';-inkscape-font-specification:CopperplateGothic-Bold;writing-mode:lr-tb;fill:#e41f25;fill-opacity:1;fill-rule:nonzero;stroke:none"
           transform="matrix(1,0,0,-1,0,30.7188)"><path
             id="path3343"
             style=""
             d="m 48.972656,-43.945312 -5.730469,11.285156 -0.984375,-0.5625 q 0.03516,-0.351563 0.03516,-0.5625 0,-1.195313 -2.039063,-2.566406 -6.257812,-4.359375 -14.695312,-4.359375 -3.726563,0 -6.574219,0.914062 -2.074219,0.703125 -3.375,2.109375 -1.265625,1.40625 -1.265625,3.058594 0,2.707031 3.269531,3.691406 1.6875,0.492188 7.242188,1.054688 l 5.519531,0.5625 q 4.921875,0.527343 7.945312,1.441406 3.058594,0.914062 5.414063,2.566406 2.390625,1.722656 3.761719,4.535156 1.40625,2.8125 1.40625,6.011719 0,5.0625 -3.269532,9 -2.953125,3.5859375 -9.175781,5.30859375 Q 31.816406,0.84375 26.507812,0.84375 q -9.527343,0 -18.8085933,-4.5703125 -1.96875,-0.9140625 -2.3554687,-0.9140625 -0.4570313,0 -1.4414062,0.7734375 l -1.0195313,-0.5273437 5.203125,-11.7773438 1.0195313,0.492187 q 0,0.316407 0,0.457032 0,1.582031 1.5117192,2.917968 2.285156,2.039063 7.066406,3.5156255 4.78125,1.4765625 9.070312,1.4765625 4.675781,0 7.980469,-1.5820313 1.828125,-0.8789062 2.917969,-2.3203127 1.089843,-1.476562 1.089843,-3.058594 0,-2.390624 -2.566406,-3.410156 -1.792969,-0.703125 -7.242187,-1.300781 l -5.414063,-0.5625 q -5.449219,-0.5625 -7.699218,-1.054687 -2.25,-0.527344 -4.5,-1.652344 Q 8.1210938,-23.835937 6.2929687,-27 4.640625,-29.847656 4.640625,-33.539062 q 0,-6.082032 4.1835938,-10.054688 5.4843752,-5.238281 16.4531252,-5.238281 4.605468,0 8.578125,0.949219 3.972656,0.914062 9.914062,3.410156 2.039063,0.808594 2.496094,0.808594 0.738281,0 1.722656,-0.808594 l 0.984375,0.527344 z" /><path
             id="path3345"
             style=""
             d="m 90.233269,-12.234375 -21.796875,0 -3.234375,6.75 q -0.667969,1.40625 -0.667969,2.2148437 0,1.5468751 2.355469,2.1445313 l 0,1.125 -15.890625,0 0,-1.125 q 1.40625,-0.28125 2.144531,-0.984375 0.738281,-0.703125 1.6875,-2.7421875 L 72.479362,-41.730469 q 0.84375,-1.757812 0.84375,-2.8125 0,-1.617187 -2.039062,-2.320312 l 0,-1.125 17.015625,0 0,1.125 q -2.074219,0.597656 -2.074219,2.074219 0,1.019531 0.667969,2.320312 l 18.281245,36.984375 q 1.16016,2.3554687 2.03907,3.234375 0.8789,0.84375 2.35547,1.125 l 0,1.125 -17.648441,0 0,-1.125 q 2.320312,-0.3867187 2.320312,-2.1796875 0,-0.7382812 -0.703125,-2.1796875 l -3.304687,-6.75 z m -3.023438,-6.574219 -7.769531,-17.085937 -7.875,17.085937 15.644531,0 z" /><path
             id="path3347"
             style=""
             d="m 159.19746,-43.945312 -5.73047,11.285156 -0.98438,-0.5625 q 0.0352,-0.351563 0.0352,-0.5625 0,-1.195313 -2.03906,-2.566406 -6.25782,-4.359375 -14.69532,-4.359375 -3.72656,0 -6.57421,0.914062 -2.07422,0.703125 -3.375,2.109375 -1.26563,1.40625 -1.26563,3.058594 0,2.707031 3.26953,3.691406 1.6875,0.492188 7.24219,1.054688 l 5.51953,0.5625 q 4.92188,0.527343 7.94531,1.441406 3.0586,0.914062 5.41407,2.566406 2.39062,1.722656 3.76171,4.535156 1.40625,2.8125 1.40625,6.011719 0,5.0625 -3.26953,9 -2.95312,3.5859375 -9.17578,5.30859375 -4.64062,1.30078125 -9.94922,1.30078125 -9.52734,0 -18.80859,-4.5703125 -1.96875,-0.9140625 -2.35547,-0.9140625 -0.45703,0 -1.44141,0.7734375 l -1.01953,-0.5273437 5.20313,-11.7773438 1.01953,0.492187 q 0,0.316407 0,0.457032 0,1.582031 1.51172,2.917968 2.28515,2.039063 7.0664,3.5156255 4.78125,1.4765625 9.07032,1.4765625 4.67578,0 7.98047,-1.5820313 1.82812,-0.8789062 2.91796,-2.3203127 1.08985,-1.476562 1.08985,-3.058594 0,-2.390624 -2.56641,-3.410156 -1.79297,-0.703125 -7.24219,-1.300781 l -5.41406,-0.5625 q -5.44922,-0.5625 -7.69922,-1.054687 -2.25,-0.527344 -4.5,-1.652344 -3.19922,-1.582031 -5.02734,-4.746094 -1.65234,-2.847656 -1.65234,-6.539062 0,-6.082032 4.18359,-10.054688 5.48437,-5.238281 16.45312,-5.238281 4.60547,0 8.57813,0.949219 3.97266,0.914062 9.91406,3.410156 2.03906,0.808594 2.4961,0.808594 0.73828,0 1.72265,-0.808594 l 0.98438,0.527344 z" /><path
             id="path3349"
             style=""
             d="m 187.25861,-22.429687 -7.20704,5.871093 0,12.8671877 q 0,1.0898438 0.49219,1.6875 0.52735,0.5625001 1.75781,0.8789063 l 0,1.125 -14.97656,0 0,-1.125 q 1.26563,-0.3515625 1.75781,-0.9140625 0.49219,-0.5625 0.49219,-1.6523438 l 0,-40.6406247 q 0,-1.054688 -0.49219,-1.617188 -0.49218,-0.5625 -1.75781,-0.914062 l 0,-1.125 14.97656,0 0,1.125 q -1.26562,0.316406 -1.75781,0.914062 -0.49219,0.5625 -0.49219,1.617188 l 0,16.804687 19.75782,-16.136718 q 1.37109,-1.125 1.37109,-1.792969 0,-1.019531 -2.03906,-1.40625 l 0,-1.125 19.61719,0 0,1.125 q -1.23047,0.246094 -1.75782,0.5625 -0.52734,0.316406 -3.05859,2.390625 l -2.70703,2.25 -16.3125,13.113281 18.49219,22.2539063 q 2.5664,3.0937499 3.6914,4.0078124 1.16016,0.8789063 2.88281,1.1601563 l 0,1.125 -18.73828,0 0,-1.125 q 1.86328,-0.3867187 1.86328,-1.3359375 0,-0.4921875 -1.6875,-2.6015625 l -14.16796,-17.367187 z" /><path
             id="path3351"
             style=""
             d="m 228.25502,-3.6914063 0,-40.6406247 q 0,-1.054688 -0.49219,-1.617188 -0.49218,-0.5625 -1.75781,-0.914062 l 0,-1.125 14.97656,0 0,1.125 q -1.26562,0.316406 -1.75781,0.914062 -0.49219,0.5625 -0.49219,1.617188 l 0,40.6406247 q 0,1.0898438 0.49219,1.6875 0.52734,0.5625001 1.75781,0.8789063 l 0,1.125 -14.97656,0 0,-1.125 q 1.26563,-0.3515625 1.75781,-0.9140625 0.49219,-0.5625 0.49219,-1.6523438 z" /><path
             id="path3353"
             style=""
             d="m 285.71327,-12.234375 -21.79687,0 -3.23438,6.75 q -0.66797,1.40625 -0.66797,2.2148437 0,1.5468751 2.35547,2.1445313 l 0,1.125 -15.89062,0 0,-1.125 q 1.40625,-0.28125 2.14453,-0.984375 0.73828,-0.703125 1.6875,-2.7421875 l 17.64844,-36.8789065 q 0.84375,-1.757812 0.84375,-2.8125 0,-1.617187 -2.03907,-2.320312 l 0,-1.125 17.01563,0 0,1.125 q -2.07422,0.597656 -2.07422,2.074219 0,1.019531 0.66797,2.320312 l 18.28125,36.984375 q 1.16015,2.3554687 2.03906,3.234375 0.87891,0.84375 2.35547,1.125 l 0,1.125 -17.64844,0 0,-1.125 q 2.32031,-0.3867187 2.32031,-2.1796875 0,-0.7382812 -0.70312,-2.1796875 l -3.30469,-6.75 z m -3.02344,-6.574219 -7.76953,-17.085937 -7.875,17.085937 15.64453,0 z" /></g><g
           id="text3358"
           style="font-variant:normal;font-weight:normal;font-stretch:normal;font-size:24px;font-family:'Copperplate Gothic Bold';-inkscape-font-specification:CopperplateGothic-Bold;writing-mode:lr-tb;fill:#2b2b2a;fill-opacity:1;fill-rule:nonzero;stroke:none"
           transform="matrix(1,0,0,-1,0,1.9189)"><path
             id="path3356"
             style=""
             d="m 5.6835937,-6.4921875 0,5.2734375 q 0,0.3515625 0.1640625,0.55078125 0.1757813,0.1875 0.5859375,0.29296875 l 0,0.375 -4.9921875,0 0,-0.375 q 0.421875,-0.1171875 0.5859376,-0.3046875 0.1640625,-0.1875 0.1640625,-0.5390625 l 0,-13.546875 q 0,-0.363281 -0.1640625,-0.550781 -0.1640626,-0.1875 -0.5859376,-0.304688 l 0,-0.375 9.9843748,0 q 1.746094,0 2.765625,0.234375 1.03125,0.234375 1.816406,0.808594 0.808594,0.597656 1.265625,1.570312 0.457032,1.007813 0.457032,2.132813 0,1.6171875 -0.867188,2.8359375 -0.75,1.0429688 -1.992187,1.4882813 -1.230469,0.4335937 -3.445313,0.4335937 l -5.7421873,0 z m 0,-2.6367188 5.3320313,0 q 1.59375,0 2.238281,-0.3398437 0.410157,-0.2226563 0.65625,-0.703125 0.257813,-0.492188 0.257813,-1.078125 0,-0.574219 -0.257813,-1.054688 -0.246093,-0.492187 -0.65625,-0.714843 -0.632812,-0.339844 -2.238281,-0.339844 l -5.3320313,0 0,4.2304687 z" /><path
             id="path3358"
             style=""
             d="m 23.447063,-5.390625 0,4.1953125 q 0,0.36328125 0.164063,0.5625 0.164062,0.1875 0.585937,0.31640625 l 0,0.31640625 -4.640625,0 0,-0.328125 q 0.410157,-0.10546875 0.574219,-0.3046875 0.175781,-0.19921875 0.175781,-0.5625 l 0,-10.7343755 q 0,-0.363281 -0.164062,-0.550781 -0.164063,-0.1875 -0.585938,-0.316406 l 0,-0.328125 8.601563,0 q 1.675781,0 2.554687,0.175781 0.878907,0.164063 1.570313,0.609375 1.417969,0.925781 1.417969,3.0234377 0,1.5937501 -0.878907,2.4960938 -0.867187,0.890625 -2.8125,1.2890625 l 2.484375,3.46875 q 0.679688,0.9609375 1.078125,1.3125 0.410157,0.33984375 0.925782,0.43359375 l 0,0.31640625 -5.507813,0 0,-0.31640625 q 0.609375,-0.1640625 0.609375,-0.52734375 0,-0.2578125 -0.375,-0.7851562 l -2.625,-3.7617188 -3.152344,0 z m 0,-2.3789062 4.734375,0 q 1.078125,0 1.59375,-0.2343751 0.726563,-0.3164062 0.726563,-1.2539062 0,-0.8320315 -0.515625,-1.1601565 -0.503906,-0.328125 -1.804688,-0.328125 l -4.734375,0 0,2.9765628 z" /><path
             id="path3360"
             style=""
             d="m 43.172852,-13.40625 q 3.128906,0 5.214843,1.59375 2.496094,1.921875 2.496094,5.3554688 0,3.2226562 -2.496094,5.1445312 -2.0625,1.59375 -5.191406,1.59375 -3.128906,0 -5.191406,-1.59375 -2.507813,-1.921875 -2.507813,-5.25 0,-3.3632813 2.507813,-5.25 2.074219,-1.558594 5.167969,-1.59375 z m 0.01172,2.484375 q -2.027343,0 -3.304687,1.3007812 -1.183594,1.21875 -1.183594,3.0585938 0,1.828125 1.183594,3.046875 1.277344,1.3125 3.316406,1.3125 2.027344,0 3.304688,-1.3125 1.183593,-1.2070312 1.183593,-2.9882812 0,-1.9335938 -1.183593,-3.1171876 -1.289063,-1.2773442 -3.316407,-1.3007812 z" /><path
             id="path3362"
             style=""
             d="m 56.840664,-5.578125 0,4.3828125 q 0,0.36328125 0.164062,0.5625 0.164063,0.1875 0.585938,0.31640625 l 0,0.31640625 -4.640625,0 0,-0.328125 q 0.410156,-0.10546875 0.574219,-0.3046875 0.175781,-0.19921875 0.175781,-0.5625 l 0,-10.7343755 q 0,-0.363281 -0.164063,-0.550781 -0.164062,-0.1875 -0.585937,-0.316406 l 0,-0.328125 11.765625,0 q 0.375,0 0.5625,-0.164063 0.199219,-0.164062 0.316406,-0.585937 l 0.316406,0 0,3.890625 -0.316406,0 q -0.117187,-0.421875 -0.316406,-0.585938 -0.1875,-0.175781 -0.5625,-0.175781 l -7.875,0 0,2.8828128 4.945312,0 q 0.375,0 0.5625,-0.1640626 0.1875,-0.1640625 0.316407,-0.5859375 l 0.316406,0 0,3.7968751 -0.316406,0 q -0.117188,-0.421875 -0.316407,-0.5859375 -0.1875,-0.1757813 -0.5625,-0.1757813 l -4.945312,0 z" /><path
             id="path3364"
             style=""
             d="m 71.504662,-11.929688 0,10.7343755 q 0,0.36328125 0.164062,0.5625 0.164063,0.1875 0.585938,0.31640625 l 0,0.31640625 -4.640625,0 0,-0.328125 q 0.410156,-0.10546875 0.574218,-0.3046875 0.175782,-0.19921875 0.175782,-0.5625 l 0,-10.7343755 q 0,-0.363281 -0.164063,-0.550781 -0.164062,-0.1875 -0.585937,-0.316406 l 0,-0.328125 4.640625,0 0,0.328125 q -0.421875,0.117187 -0.585938,0.316406 -0.164062,0.1875 -0.164062,0.550781 z" /><path
             id="path3366"
             style=""
             d="m 85.205193,-6.4921875 0,5.2734375 q 0,0.3515625 0.164062,0.55078125 0.175781,0.1875 0.585938,0.29296875 l 0,0.375 -4.992188,0 0,-0.375 q 0.421875,-0.1171875 0.585938,-0.3046875 0.164062,-0.1875 0.164062,-0.5390625 l 0,-13.546875 q 0,-0.363281 -0.164062,-0.550781 -0.164063,-0.1875 -0.585938,-0.304688 l 0,-0.375 9.984375,0 q 1.746094,0 2.765625,0.234375 1.03125,0.234375 1.816406,0.808594 0.808594,0.597656 1.265625,1.570312 0.457032,1.007813 0.457032,2.132813 0,1.6171875 -0.867188,2.8359375 -0.75,1.0429688 -1.992187,1.4882813 -1.230469,0.4335937 -3.445313,0.4335937 l -5.742187,0 z m 0,-2.6367188 5.332031,0 q 1.59375,0 2.238281,-0.3398437 0.410156,-0.2226563 0.65625,-0.703125 0.257813,-0.492188 0.257813,-1.078125 0,-0.574219 -0.257813,-1.054688 -0.246094,-0.492187 -0.65625,-0.714843 -0.632812,-0.339844 -2.238281,-0.339844 l -5.332031,0 0,4.2304687 z" /><path
             id="path3368"
             style=""
             d="m 110.29288,-5.7070312 -7.32421,0 0,4.5117187 q 0,0.36328125 0.16406,0.5625 0.16406,0.1875 0.58594,0.31640625 l 0,0.31640625 -4.640629,0 0,-0.328125 q 0.410156,-0.10546875 0.574219,-0.3046875 0.175781,-0.19921875 0.175781,-0.5625 l 0,-10.7343755 q 0,-0.363281 -0.164062,-0.550781 -0.164063,-0.1875 -0.585938,-0.316406 l 0,-0.328125 4.640629,0 0,0.328125 q -0.42188,0.117187 -0.58594,0.316406 -0.16406,0.1875 -0.16406,0.550781 l 0,3.8437505 7.32421,0 0,-3.8437505 q 0,-0.363281 -0.16406,-0.550781 -0.15234,-0.1875 -0.58594,-0.316406 l 0,-0.328125 4.64063,0 0,0.328125 q -0.42188,0.117187 -0.58594,0.316406 -0.16406,0.1875 -0.16406,0.550781 l 0,10.7343755 q 0,0.36328125 0.16406,0.5625 0.16406,0.1875 0.58594,0.31640625 l 0,0.31640625 -4.64063,0 0,-0.328125 q 0.41016,-0.10546875 0.57422,-0.3046875 0.17578,-0.19921875 0.17578,-0.5625 l 0,-4.5117187 z" /><path
             id="path3370"
             style=""
             d="m 123.93285,-13.40625 q 3.12891,0 5.21485,1.59375 2.49609,1.921875 2.49609,5.3554688 0,3.2226562 -2.49609,5.1445312 -2.0625,1.59375 -5.19141,1.59375 -3.12891,0 -5.19141,-1.59375 -2.50781,-1.921875 -2.50781,-5.25 0,-3.3632813 2.50781,-5.25 2.07422,-1.558594 5.16797,-1.59375 z m 0.0117,2.484375 q -2.02734,0 -3.30469,1.3007812 -1.18359,1.21875 -1.18359,3.0585938 0,1.828125 1.18359,3.046875 1.27735,1.3125 3.31641,1.3125 2.02734,0 3.30469,-1.3125 1.18359,-1.2070312 1.18359,-2.9882812 0,-1.9335938 -1.18359,-3.1171876 -1.28906,-1.2773442 -3.31641,-1.3007812 z" /><path
             id="path3372"
             style=""
             d="m 140.90422,-10.746094 0,9.5507815 q 0,0.36328125 0.16406,0.5625 0.16407,0.1875 0.58594,0.31640625 l 0,0.31640625 -4.64062,0 0,-0.328125 q 0.41015,-0.10546875 0.57421,-0.3046875 0.17579,-0.19921875 0.17579,-0.5625 l 0,-9.5507815 -3.86719,0 q -0.375,0 -0.57422,0.175781 -0.1875,0.164063 -0.30469,0.585938 l -0.3164,0 0,-3.890625 0.32812,0 q 0.10547,0.410156 0.29297,0.585937 0.19922,0.164063 0.57422,0.164063 l 10.875,0 q 0.375,0 0.5625,-0.164063 0.19922,-0.164062 0.3164,-0.585937 l 0.31641,0 0,3.890625 -0.31641,0 q -0.11718,-0.421875 -0.3164,-0.585938 -0.1875,-0.175781 -0.5625,-0.175781 l -3.86719,0 z" /><path
             id="path3374"
             style=""
             d="m 154.70805,-13.40625 q 3.12891,0 5.21485,1.59375 2.49609,1.921875 2.49609,5.3554688 0,3.2226562 -2.49609,5.1445312 -2.0625,1.59375 -5.19141,1.59375 -3.12891,0 -5.19141,-1.59375 -2.50781,-1.921875 -2.50781,-5.25 0,-3.3632813 2.50781,-5.25 2.07422,-1.558594 5.16797,-1.59375 z m 0.0117,2.484375 q -2.02734,0 -3.30469,1.3007812 -1.18359,1.21875 -1.18359,3.0585938 0,1.828125 1.18359,3.046875 1.27735,1.3125 3.31641,1.3125 2.02734,0 3.30469,-1.3125 1.18359,-1.2070312 1.18359,-2.9882812 0,-1.9335938 -1.18359,-3.1171876 -1.28906,-1.2773442 -3.31641,-1.3007812 z" /><path
             id="path3376"
             style=""
             d="m 175.06839,-6.9960937 0,5.765625 q 0,0.3632812 0.16406,0.56249995 0.17578,0.1875 0.58594,0.29296875 l 0,0.375 -4.99219,0 0,-0.375 q 0.42188,-0.1171875 0.58594,-0.3046875 0.16406,-0.1875 0.16406,-0.5507812 l 0,-13.5351563 q 0,-0.363281 -0.16406,-0.550781 -0.16406,-0.1875 -0.58594,-0.304688 l 0,-0.375 14.15625,0 q 0.35156,0 0.53906,-0.164062 0.1875,-0.164063 0.30469,-0.597656 l 0.375,0 0,4.136718 -0.375,0 q -0.11719,-0.421875 -0.30469,-0.574219 -0.1875,-0.164062 -0.53906,-0.164062 l -9.91406,0 0,3.8203125 6.48047,0 q 0.36328,0 0.55078,-0.1640625 0.1875,-0.1757813 0.30469,-0.597656 l 0.375,0 0,4.0429685 -0.375,0 q -0.11719,-0.4101562 -0.30469,-0.5742187 -0.1875,-0.1640625 -0.55078,-0.1640625 l -6.48047,0 z" /><path
             id="path3378"
             style=""
             d="m 191.94386,-11.929688 0,10.7343755 q 0,0.36328125 0.16407,0.5625 0.16406,0.1875 0.58593,0.31640625 l 0,0.31640625 -4.64062,0 0,-0.328125 q 0.41015,-0.10546875 0.57422,-0.3046875 0.17578,-0.19921875 0.17578,-0.5625 l 0,-10.7343755 q 0,-0.363281 -0.16406,-0.550781 -0.16407,-0.1875 -0.58594,-0.316406 l 0,-0.328125 4.64062,0 0,0.328125 q -0.42187,0.117187 -0.58593,0.316406 -0.16407,0.1875 -0.16407,0.550781 z" /><path
             id="path3380"
             style=""
             d="m 198.95186,-2.3789063 7.34765,0 q 0.375,0 0.5625,-0.1640625 0.1875,-0.1640625 0.31641,-0.5976562 l 0.31641,0 0,3.890625 -0.31641,0 Q 207.06123,0.328125 206.86201,0.1640625 206.67451,0 206.29951,0 l -11.23828,0 0,-0.328125 q 0.41016,-0.10546875 0.57422,-0.3046875 0.17578,-0.19921875 0.17578,-0.5625 l 0,-10.7343755 q 0,-0.363281 -0.16406,-0.550781 -0.16406,-0.1875 -0.58594,-0.316406 l 0,-0.328125 4.64063,0 0,0.328125 q -0.42188,0.117187 -0.58594,0.316406 -0.16406,0.1875 -0.16406,0.550781 l 0,9.5507817 z" /><path
             id="path3382"
             style=""
             d="M 217.27586,-0.41015625 212.49461,-8.625 l 0,7.4296875 q 0,0.36328125 0.16407,0.5625 0.16406,0.1875 0.58593,0.31640625 l 0,0.31640625 -4.35937,0 0,-0.328125 q 0.41015,-0.10546875 0.57422,-0.3046875 0.17578,-0.19921875 0.17578,-0.5625 l 0,-10.7343755 q 0,-0.363281 -0.16406,-0.550781 -0.16407,-0.199219 -0.58594,-0.316406 l 0,-0.328125 5.54297,0 0,0.328125 q -0.55078,0.175781 -0.55078,0.667969 0,0.480468 0.39843,1.171875 l 3.26953,5.519531 3.29297,-5.4375 q 0.5625,-0.925781 0.5625,-1.3125 0,-0.480469 -0.57422,-0.609375 l 0,-0.328125 5.40235,0 0,0.328125 q -0.42188,0.117187 -0.58594,0.316406 -0.16406,0.1875 -0.16406,0.550781 l 0,10.7343755 q 0,0.36328125 0.16406,0.5625 0.16406,0.19921875 0.58594,0.31640625 l 0,0.31640625 -4.64063,0 0,-0.328125 q 0.41016,-0.10546875 0.57422,-0.3046875 0.17578,-0.19921875 0.17578,-0.5625 l 0,-7.4296875 -5.0625,8.21484375 z" /><path
             id="path3384"
             style=""
             d="m 249.18021,-8.3789063 q 2.69531,1.0195313 2.69531,3.7734376 0,2.1914062 -1.57031,3.4335937 -0.79688,0.62109375 -1.85157,0.90234375 Q 247.41068,0 245.8638,0 l -10.93359,0 0,-0.375 q 0.42187,-0.1171875 0.58593,-0.3046875 0.16407,-0.1875 0.16407,-0.5507812 l 0,-13.5351563 q 0,-0.363281 -0.16407,-0.550781 -0.16406,-0.1875 -0.58593,-0.304688 l 0,-0.375 10.82812,0 q 1.5586,0 2.50781,0.234375 0.94922,0.234375 1.66407,0.796875 1.41797,1.113281 1.41797,3.210938 0,2.3437497 -2.16797,3.3749997 z m -10.00782,-1.2539062 6.12891,0 q 1.39453,0 1.94531,-0.4101565 0.6211,-0.46875 0.6211,-1.453125 0,-1.007812 -0.58594,-1.429687 -0.58594,-0.433594 -1.98047,-0.433594 l -6.12891,0 0,3.7265625 z m 0,6.9960937 5.92969,0 q 1.65235,0 2.37891,-0.4570312 0.83203,-0.5273438 0.83203,-1.7226562 0,-1.1835938 -0.83203,-1.7226563 -0.71485,-0.4570312 -2.37891,-0.4570312 l -5.92969,0 0,4.3593749 z" /><path
             id="path3386"
             style=""
             d="m 257.91986,-5.390625 0,4.1953125 q 0,0.36328125 0.16406,0.5625 0.16407,0.1875 0.58594,0.31640625 l 0,0.31640625 -4.64062,0 0,-0.328125 q 0.41015,-0.10546875 0.57421,-0.3046875 0.17579,-0.19921875 0.17579,-0.5625 l 0,-10.7343755 q 0,-0.363281 -0.16407,-0.550781 -0.16406,-0.1875 -0.58593,-0.316406 l 0,-0.328125 8.60156,0 q 1.67578,0 2.55469,0.175781 0.8789,0.164063 1.57031,0.609375 1.41797,0.925781 1.41797,3.0234377 0,1.5937501 -0.87891,2.4960938 -0.86719,0.890625 -2.8125,1.2890625 l 2.48438,3.46875 q 0.67968,0.9609375 1.07812,1.3125 0.41016,0.33984375 0.92578,0.43359375 l 0,0.31640625 -5.50781,0 0,-0.31640625 q 0.60937,-0.1640625 0.60937,-0.52734375 0,-0.2578125 -0.375,-0.7851562 l -2.625,-3.7617188 -3.15234,0 z m 0,-2.3789062 4.73438,0 q 1.07812,0 1.59375,-0.2343751 0.72656,-0.3164062 0.72656,-1.2539062 0,-0.8320315 -0.51563,-1.1601565 -0.5039,-0.328125 -1.80468,-0.328125 l -4.73438,0 0,2.9765628 z" /><path
             id="path3388"
             style=""
             d="m 277.64325,-13.40625 q 3.12891,0 5.21484,1.59375 2.4961,1.921875 2.4961,5.3554688 0,3.2226562 -2.4961,5.1445312 -2.0625,1.59375 -5.1914,1.59375 -3.12891,0 -5.19141,-1.59375 -2.50781,-1.921875 -2.50781,-5.25 0,-3.3632813 2.50781,-5.25 2.07422,-1.558594 5.16797,-1.59375 z m 0.0117,2.484375 q -2.02735,0 -3.30469,1.3007812 -1.18359,1.21875 -1.18359,3.0585938 0,1.828125 1.18359,3.046875 1.27734,1.3125 3.31641,1.3125 2.02734,0 3.30468,-1.3125 1.1836,-1.2070312 1.1836,-2.9882812 0,-1.9335938 -1.1836,-3.1171876 -1.28906,-1.2773442 -3.3164,-1.3007812 z" /><path
             id="path3390"
             style=""
             d="m 297.36966,-3.28125 -6.03516,0 -0.67968,1.4296875 q -0.2461,0.515625 -0.2461,0.8085938 0,0.56249995 0.75,0.7148437 l 0,0.328125 -4.82812,0 0,-0.328125 q 0.44531,-0.0703125 0.65625,-0.26953125 0.22265,-0.19921875 0.51562,-0.78515625 l 4.79297,-9.7031255 q 0.26953,-0.550781 0.26953,-0.960937 0,-0.480469 -0.65625,-0.75 l 0,-0.328125 5.09766,0 0,0.328125 q -0.64453,0.257812 -0.64453,0.796875 0,0.386719 0.29297,0.949219 l 4.96875,9.410156 q 0.41015,0.7734375 0.64453,1.0078125 0.23437,0.22265625 0.71484,0.31640625 l 0,0.31640625 -5.35547,0 0,-0.31640625 q 0.76172,-0.12890625 0.76172,-0.71484375 0,-0.3632812 -0.29297,-0.9023437 L 297.36966,-3.28125 Z m -0.94922,-1.8398437 -2.14453,-4.2070313 -2.03906,4.2070313 4.18359,0 z" /><path
             id="path3392"
             style=""
             d="m 304.87445,-1.1953125 0,-10.7343755 q 0,-0.363281 -0.16406,-0.550781 -0.16406,-0.1875 -0.58594,-0.316406 l 0,-0.328125 7.69922,0 q 2.40234,0 3.78516,0.597656 1.94531,0.84375 2.80078,2.7890627 0.59765,1.359375 0.59765,3.1757813 0,3.3632812 -2.0039,5.0976563 -0.90235,0.77343745 -2.13282,1.12499995 Q 313.65179,0 311.82367,0 l -7.69922,0 0,-0.328125 q 0.41016,-0.10546875 0.57422,-0.3046875 0.17578,-0.19921875 0.17578,-0.5625 z m 3.14063,-1.1835938 3.35156,0 q 2.30859,0 3.35156,-1.0546875 1.08984,-1.1015624 1.08984,-3.1289062 0,-2.0273438 -1.08984,-3.1289063 -0.53906,-0.5507817 -1.33594,-0.7968747 -0.79687,-0.257813 -2.01562,-0.257813 l -3.35156,0 0,8.3671877 z" /><path
             id="path3394"
             style=""
             d="m 333.90048,-4.6992187 1.98047,2.8828125 -0.26953,0.1992187 q -0.28125,-0.1992187 -0.44531,-0.1992187 -0.19922,0 -0.92578,0.4335937 -1.60547,0.9375 -2.83594,1.30078125 -1.23047,0.36328125 -2.83594,0.36328125 -3.21094,0 -5.23828,-1.5351562 -1.14844,-0.8789063 -1.82813,-2.2031251 -0.72656,-1.4296874 -0.72656,-3.1054687 0,-2.3085938 1.33594,-4.078125 2.09766,-2.765625 6.43359,-2.765625 1.60547,0 2.84766,0.363281 1.25391,0.363281 2.84766,1.300781 0.72656,0.433594 0.92578,0.433594 0.16406,0 0.44531,-0.199219 l 0.26953,0.210938 -1.98047,2.8710937 -0.25781,-0.1875 q 0.0117,-0.140625 0.0234,-0.1757812 0.0117,-0.1054688 0.0117,-0.1523438 0,-0.5742187 -1.58204,-1.3007817 -1.5,-0.691406 -3.02343,-0.691406 -2.13282,0 -3.51563,1.1250002 -1.58203,1.265625 -1.58203,3.2460938 0,1.9921875 1.58203,3.2578125 1.39453,1.1132812 3.51563,1.1132812 1.66406,0 3.3164,-0.8320312 1.28907,-0.65625 1.28907,-1.1484375 0,-0.023437 -0.0352,-0.328125 l 0.25781,-0.1992187 z" /><path
             id="path3396"
             style=""
             d="m 347.79367,-3.28125 -6.03516,0 -0.67968,1.4296875 q -0.2461,0.515625 -0.2461,0.8085938 0,0.56249995 0.75,0.7148437 l 0,0.328125 -4.82812,0 0,-0.328125 q 0.44531,-0.0703125 0.65625,-0.26953125 0.22265,-0.19921875 0.51562,-0.78515625 l 4.79297,-9.7031255 q 0.26953,-0.550781 0.26953,-0.960937 0,-0.480469 -0.65625,-0.75 l 0,-0.328125 5.09766,0 0,0.328125 q -0.64453,0.257812 -0.64453,0.796875 0,0.386719 0.29297,0.949219 l 4.96875,9.410156 q 0.41015,0.7734375 0.64453,1.0078125 0.23437,0.22265625 0.71484,0.31640625 l 0,0.31640625 -5.35547,0 0,-0.31640625 q 0.76172,-0.12890625 0.76172,-0.71484375 0,-0.3632812 -0.29297,-0.9023437 L 347.79367,-3.28125 Z m -0.94922,-1.8398437 -2.14453,-4.2070313 -2.03906,4.2070313 4.18359,0 z" /><path
             id="path3398"
             style=""
             d="m 367.16953,-11.941406 -1.58204,3.0585935 -0.28125,-0.1523438 q 0,-0.3867187 -0.24609,-0.609375 -0.66797,-0.5976567 -1.96875,-0.9843747 -1.30078,-0.386719 -2.63672,-0.386719 -1.13672,0 -2.01562,0.316406 -1.26563,0.457031 -1.26563,1.324219 0,0.5742187 0.60938,0.8203125 0.60937,0.234375 2.35547,0.375 l 1.85156,0.140625 q 2.42578,0.1875 3.6914,0.9375 0.70313,0.421875 1.16016,1.125 0.57422,0.8789063 0.57422,1.9804687 0,2.0039063 -1.80469,3.16406255 -1.72265,1.11328125 -4.66406,1.11328125 -2.96484,0 -5.73047,-1.25390625 -0.1875,-0.0820313 -0.31641,-0.0820313 -0.23437,0 -0.43359,0.28125 l -0.29297,-0.1171875 1.34766,-3.2109375 0.29297,0.1171875 q 0,0.070312 0,0.09375 0,0.3046875 0.23437,0.515625 0.58594,0.515625 2.02735,0.9023437 1.4414,0.375 2.84765,0.375 1.24219,0 2.22656,-0.328125 1.21875,-0.3984375 1.21875,-1.2890625 0,-0.7148437 -0.84375,-0.9960937 -0.5625,-0.1875 -2.02734,-0.3164062 l -1.83984,-0.1523438 q -1.48828,-0.1171875 -2.27344,-0.3046875 -0.78516,-0.1875 -1.37109,-0.5507812 -0.75,-0.46875 -1.17188,-1.2773438 -0.42187,-0.8085938 -0.42187,-1.7695313 0,-2.1562497 1.85156,-3.2929687 1.6875,-1.03125 4.17187,-1.03125 1.34766,0 2.50782,0.304687 1.17187,0.292969 2.78906,1.042969 0.48047,0.222656 0.66797,0.222656 0.1875,0 0.48047,-0.257812 l 0.28125,0.152344 z" /><path
             id="path3400"
             style=""
             d="m 376.82663,-10.746094 0,9.5507815 q 0,0.36328125 0.16406,0.5625 0.16406,0.1875 0.58594,0.31640625 l 0,0.31640625 -4.64063,0 0,-0.328125 q 0.41016,-0.10546875 0.57422,-0.3046875 0.17578,-0.19921875 0.17578,-0.5625 l 0,-9.5507815 -3.86718,0 q -0.375,0 -0.57422,0.175781 -0.1875,0.164063 -0.30469,0.585938 l -0.31641,0 0,-3.890625 0.32813,0 q 0.10547,0.410156 0.29297,0.585937 0.19922,0.164063 0.57422,0.164063 l 10.875,0 q 0.375,0 0.5625,-0.164063 0.19922,-0.164062 0.3164,-0.585937 l 0.31641,0 0,3.890625 -0.31641,0 q -0.11718,-0.421875 -0.3164,-0.585938 -0.1875,-0.175781 -0.5625,-0.175781 l -3.86719,0 z" /><path
             id="path3402"
             style=""
             d="m 387.17908,-11.929688 0,10.7343755 q 0,0.36328125 0.16406,0.5625 0.16406,0.1875 0.58594,0.31640625 l 0,0.31640625 -4.64063,0 0,-0.328125 q 0.41016,-0.10546875 0.57422,-0.3046875 0.17578,-0.19921875 0.17578,-0.5625 l 0,-10.7343755 q 0,-0.363281 -0.16406,-0.550781 -0.16406,-0.1875 -0.58594,-0.316406 l 0,-0.328125 4.64063,0 0,0.328125 q -0.42188,0.117187 -0.58594,0.316406 -0.16406,0.1875 -0.16406,0.550781 z" /><path
             id="path3404"
             style=""
             d="m 393.8938,-8.6484375 0,7.453125 q 0,0.36328125 0.16406,0.5625 0.17578,0.19921875 0.58594,0.31640625 l 0,0.31640625 -4.35938,0 0,-0.328125 q 0.41016,-0.10546875 0.57422,-0.3046875 0.17578,-0.19921875 0.17578,-0.5625 l 0,-10.7343755 q 0,-0.363281 -0.16406,-0.550781 -0.16406,-0.1875 -0.58594,-0.316406 l 0,-0.328125 5.03907,0 0,0.328125 q -0.51563,0.128906 -0.51563,0.457031 0,0.28125 0.375,0.65625 l 7.03125,6.9843753 0,-7.2304693 q 0,-0.363281 -0.16406,-0.550781 -0.16406,-0.199219 -0.58594,-0.316406 l 0,-0.328125 4.35938,0 0,0.328125 q -0.42188,0.117187 -0.58594,0.316406 -0.16406,0.1875 -0.16406,0.550781 l 0,10.7343755 q 0,0.36328125 0.16406,0.5625 0.16406,0.1875 0.58594,0.31640625 l 0,0.31640625 -4.69922,0 0,-0.31640625 Q 401.63989,-0.421875 401.63989,-0.75 q 0,-0.1640625 -0.14062,-0.3398437 -0.14063,-0.1757813 -0.64453,-0.6914063 l -6.96094,-6.8671875 z" /><path
             id="path3406"
             style=""
             d="m 420.02438,-5.0625 -2.98828,0 q -0.375,0 -0.57422,0.1640625 -0.1875,0.1640625 -0.30468,0.5859375 l -0.31641,0 0,-3.46875 0.31641,0 q 0.11718,0.4101563 0.30468,0.5742188 0.19922,0.1640625 0.57422,0.1640625 l 6.2461,0 0,0.3398437 q -0.41016,0.1171875 -0.58594,0.3398438 -0.16406,0.2226562 -0.16406,0.6328125 l 0,2.7656249 q 0,0.3632813 0.16406,0.5625 0.17578,0.1992188 0.58594,0.3164063 l 0,0.2695313 q -3.79688,2.0976562 -7.57032,2.0976562 -3.25781,0 -5.27343,-1.5351562 -1.08985,-0.8437501 -1.75782,-2.0859376 -0.78515,-1.4765624 -0.78515,-3.1523437 0,-2.3203125 1.42968,-4.1250005 2.22657,-2.789062 6.58594,-2.789062 1.91016,0 4.35938,0.84375 0.97265,0.328125 1.13672,0.328125 0.19921,0 0.46875,-0.1875 l 0.28125,0.152344 -1.5586,3.3046872 -0.28125,-0.140625 q 0,-0.046875 0,-0.070312 0,-0.4335937 -0.86719,-0.8906247 -1.60546,-0.855469 -3.44531,-0.855469 -2.12109,0 -3.48047,1.1601562 -1.42968,1.21875 -1.42968,3.2812501 0,1.9335937 1.30078,3.0937499 1.33593,1.1835938 3.75,1.1835938 2.29687,0 3.8789,-0.8554688 l 0,-2.0039062 z" /></g></g></g></g></svg>